HIERARCHY
ROOT mixamorig:Hips
{
	OFFSET -0.000008 104.274872 1.554316
	CHANNELS 6 Xposition Yposition Zposition Xrotation Yrotation Zrotation
	JOINT mixamorig:Spine
	{
		OFFSET -0.000005 10.181595 0.131519
		CHANNELS 6 Xposition Yposition Zposition Xrotation Yrotation Zrotation
		JOINT mixamorig:Spine1
		{
			OFFSET -0.000000 9.893959 -1.470707
			CHANNELS 6 Xposition Yposition Zposition Xrotation Yrotation Zrotation
			JOINT mixamorig:Spine2
			{
				OFFSET -0.000000 9.220757 -1.370641
				CHANNELS 6 Xposition Yposition Zposition Xrotation Yrotation Zrotation
				JOINT mixamorig:Neck
				{
					OFFSET 0.000001 16.740417 -2.049036
					CHANNELS 6 Xposition Yposition Zposition Xrotation Yrotation Zrotation
					JOINT mixamorig:Head
					{
						OFFSET 0.000000 9.617874 1.685006
						CHANNELS 6 Xposition Yposition Zposition Xrotation Yrotation Zrotation
						JOINT mixamorig:HeadTop_End
						{
							OFFSET 0.000002 22.037354 7.501101
							CHANNELS 6 Xposition Yposition Zposition Xrotation Yrotation Zrotation
							End Site
							{
								OFFSET 0.000168 2310.654297 -282.823242
							}
						}
					}
				}
				JOINT mixamorig:RightShoulder
				{
					OFFSET -4.569970 11.014908 -2.160885
					CHANNELS 6 Xposition Yposition Zposition Xrotation Yrotation Zrotation
					JOINT mixamorig:RightArm
					{
						OFFSET -10.592851 -0.524811 -2.232101
						CHANNELS 6 Xposition Yposition Zposition Xrotation Yrotation Zrotation
						JOINT mixamorig:RightForeArm
						{
							OFFSET -27.841511 0.000031 -0.000004
							CHANNELS 6 Xposition Yposition Zposition Xrotation Yrotation Zrotation
							JOINT mixamorig:RightHand
							{
								OFFSET -28.328831 -0.000015 0.000015
								CHANNELS 6 Xposition Yposition Zposition Xrotation Yrotation Zrotation
								JOINT mixamorig:RightHandThumb1
								{
									OFFSET -2.464806 -1.573990 2.681852
									CHANNELS 6 Xposition Yposition Zposition Xrotation Yrotation Zrotation
									JOINT mixamorig:RightHandThumb2
									{
										OFFSET -3.215179 -1.872803 1.924282
										CHANNELS 6 Xposition Yposition Zposition Xrotation Yrotation Zrotation
										JOINT mixamorig:RightHandThumb3
										{
											OFFSET -2.654831 -1.527969 1.512609
											CHANNELS 6 Xposition Yposition Zposition Xrotation Yrotation Zrotation
											JOINT mixamorig:RightHandThumb4
											{
												OFFSET -2.018814 -1.152008 1.108052
												CHANNELS 6 Xposition Yposition Zposition Xrotation Yrotation Zrotation
												End Site
												{
													OFFSET -188.809540 -114.533607 132.431396
												}
											}
										}
									}
								}
								JOINT mixamorig:RightHandIndex1
								{
									OFFSET -9.108284 -0.517868 2.259835
									CHANNELS 6 Xposition Yposition Zposition Xrotation Yrotation Zrotation
									JOINT mixamorig:RightHandIndex2
									{
										OFFSET -3.699989 0.000000 0.001215
										CHANNELS 6 Xposition Yposition Zposition Xrotation Yrotation Zrotation
										JOINT mixamorig:RightHandIndex3
										{
											OFFSET -2.850006 0.000031 -0.000522
											CHANNELS 6 Xposition Yposition Zposition Xrotation Yrotation Zrotation
											JOINT mixamorig:RightHandIndex4
											{
												OFFSET -2.772186 -0.000015 -0.000020
												CHANNELS 6 Xposition Yposition Zposition Xrotation Yrotation Zrotation
												End Site
												{
													OFFSET -277.218445 0.000000 -0.050231
												}
											}
										}
									}
								}
								JOINT mixamorig:RightHandMiddle1
								{
									OFFSET -9.532516 -0.000031 -0.000023
									CHANNELS 6 Xposition Yposition Zposition Xrotation Yrotation Zrotation
									JOINT mixamorig:RightHandMiddle2
									{
										OFFSET -3.700005 -0.000015 0.003713
										CHANNELS 6 Xposition Yposition Zposition Xrotation Yrotation Zrotation
										JOINT mixamorig:RightHandMiddle3
										{
											OFFSET -2.949974 0.000015 -0.002054
											CHANNELS 6 Xposition Yposition Zposition Xrotation Yrotation Zrotation
											JOINT mixamorig:RightHandMiddle4
											{
												OFFSET -2.946640 0.000000 -0.000156
												CHANNELS 6 Xposition Yposition Zposition Xrotation Yrotation Zrotation
												End Site
												{
													OFFSET -294.664337 0.000000 -0.113670
												}
											}
										}
									}
								}
								JOINT mixamorig:RightHandRing1
								{
									OFFSET -9.103600 -0.043076 -1.865134
									CHANNELS 6 Xposition Yposition Zposition Xrotation Yrotation Zrotation
									JOINT mixamorig:RightHandRing2
									{
										OFFSET -3.379288 0.000000 -0.001055
										CHANNELS 6 Xposition Yposition Zposition Xrotation Yrotation Zrotation
										JOINT mixamorig:RightHandRing3
										{
											OFFSET -2.889687 -0.000015 0.000379
											CHANNELS 6 Xposition Yposition Zposition Xrotation Yrotation Zrotation
											JOINT mixamorig:RightHandRing4
											{
												OFFSET -2.638809 -0.000015 0.000941
												CHANNELS 6 Xposition Yposition Zposition Xrotation Yrotation Zrotation
												End Site
												{
													OFFSET -263.880371 0.000000 0.516020
												}
											}
										}
									}
								}
								JOINT mixamorig:RightHandPinky1
								{
									OFFSET -8.076683 -0.486710 -3.806280
									CHANNELS 6 Xposition Yposition Zposition Xrotation Yrotation Zrotation
									JOINT mixamorig:RightHandPinky2
									{
										OFFSET -3.600014 -0.000015 -0.003747
										CHANNELS 6 Xposition Yposition Zposition Xrotation Yrotation Zrotation
										JOINT mixamorig:RightHandPinky3
										{
											OFFSET -2.099983 0.000000 -0.005739
											CHANNELS 6 Xposition Yposition Zposition Xrotation Yrotation Zrotation
											JOINT mixamorig:RightHandPinky4
											{
												OFFSET -2.115768 -0.000031 -0.003680
												CHANNELS 6 Xposition Yposition Zposition Xrotation Yrotation Zrotation
												End Site
												{
													OFFSET -211.577087 0.000000 -0.350686
												}
											}
										}
									}
								}
							}
						}
					}
				}
				JOINT mixamorig:LeftShoulder
				{
					OFFSET 4.570447 11.014725 -2.160855
					CHANNELS 6 Xposition Yposition Zposition Xrotation Yrotation Zrotation
					JOINT mixamorig:LeftArm
					{
						OFFSET 10.592371 -0.524597 -2.232119
						CHANNELS 6 Xposition Yposition Zposition Xrotation Yrotation Zrotation
						JOINT mixamorig:LeftForeArm
						{
							OFFSET 27.841532 -0.000031 0.000026
							CHANNELS 6 Xposition Yposition Zposition Xrotation Yrotation Zrotation
							JOINT mixamorig:LeftHand
							{
								OFFSET 28.328846 -0.000061 0.000022
								CHANNELS 6 Xposition Yposition Zposition Xrotation Yrotation Zrotation
								JOINT mixamorig:LeftHandThumb1
								{
									OFFSET 2.466141 -1.576172 2.681732
									CHANNELS 6 Xposition Yposition Zposition Xrotation Yrotation Zrotation
									JOINT mixamorig:LeftHandThumb2
									{
										OFFSET 3.217812 -1.872070 1.916482
										CHANNELS 6 Xposition Yposition Zposition Xrotation Yrotation Zrotation
										JOINT mixamorig:LeftHandThumb3
										{
											OFFSET 2.656029 -1.528778 1.514513
											CHANNELS 6 Xposition Yposition Zposition Xrotation Yrotation Zrotation
											JOINT mixamorig:LeftHandThumb4
											{
												OFFSET 2.020889 -1.154053 1.115139
												CHANNELS 6 Xposition Yposition Zposition Xrotation Yrotation Zrotation
												End Site
												{
													OFFSET 190.885437 -115.081749 130.048782
												}
											}
										}
									}
								}
								JOINT mixamorig:LeftHandIndex1
								{
									OFFSET 9.109314 -0.518021 2.259871
									CHANNELS 6 Xposition Yposition Zposition Xrotation Yrotation Zrotation
									JOINT mixamorig:LeftHandIndex2
									{
										OFFSET 3.699989 0.000000 -0.000322
										CHANNELS 6 Xposition Yposition Zposition Xrotation Yrotation Zrotation
										JOINT mixamorig:LeftHandIndex3
										{
											OFFSET 2.850006 0.000000 0.000352
											CHANNELS 6 Xposition Yposition Zposition Xrotation Yrotation Zrotation
											JOINT mixamorig:LeftHandIndex4
											{
												OFFSET 2.774864 -0.000031 -0.000027
												CHANNELS 6 Xposition Yposition Zposition Xrotation Yrotation Zrotation
												End Site
												{
													OFFSET 277.486267 0.000000 -0.009857
												}
											}
										}
									}
								}
								JOINT mixamorig:LeftHandMiddle1
								{
									OFFSET 9.533394 0.000061 0.000044
									CHANNELS 6 Xposition Yposition Zposition Xrotation Yrotation Zrotation
									JOINT mixamorig:LeftHandMiddle2
									{
										OFFSET 3.699989 -0.000015 -0.000231
										CHANNELS 6 Xposition Yposition Zposition Xrotation Yrotation Zrotation
										JOINT mixamorig:LeftHandMiddle3
										{
											OFFSET 2.949997 -0.000015 -0.000059
											CHANNELS 6 Xposition Yposition Zposition Xrotation Yrotation Zrotation
											JOINT mixamorig:LeftHandMiddle4
											{
												OFFSET 2.952896 0.000031 0.000063
												CHANNELS 6 Xposition Yposition Zposition Xrotation Yrotation Zrotation
												End Site
												{
													OFFSET 295.289337 0.000000 0.022810
												}
											}
										}
									}
								}
								JOINT mixamorig:LeftHandRing1
								{
									OFFSET 9.104523 -0.042999 -1.865074
									CHANNELS 6 Xposition Yposition Zposition Xrotation Yrotation Zrotation
									JOINT mixamorig:LeftHandRing2
									{
										OFFSET 3.150009 -0.000031 0.000043
										CHANNELS 6 Xposition Yposition Zposition Xrotation Yrotation Zrotation
										JOINT mixamorig:LeftHandRing3
										{
											OFFSET 2.949982 -0.000015 0.000040
											CHANNELS 6 Xposition Yposition Zposition Xrotation Yrotation Zrotation
											JOINT mixamorig:LeftHandRing4
											{
												OFFSET 2.644348 0.000000 0.000057
												CHANNELS 6 Xposition Yposition Zposition Xrotation Yrotation Zrotation
												End Site
												{
													OFFSET 264.434631 0.000000 0.012105
												}
											}
										}
									}
								}
								JOINT mixamorig:LeftHandPinky1
								{
									OFFSET 8.077789 -0.486847 -3.806259
									CHANNELS 6 Xposition Yposition Zposition Xrotation Yrotation Zrotation
									JOINT mixamorig:LeftHandPinky2
									{
										OFFSET 3.599953 0.000031 0.014727
										CHANNELS 6 Xposition Yposition Zposition Xrotation Yrotation Zrotation
										JOINT mixamorig:LeftHandPinky3
										{
											OFFSET 2.100021 0.000015 0.007705
											CHANNELS 6 Xposition Yposition Zposition Xrotation Yrotation Zrotation
											JOINT mixamorig:LeftHandPinky4
											{
												OFFSET 2.125504 0.000031 0.007517
												CHANNELS 6 Xposition Yposition Zposition Xrotation Yrotation Zrotation
												End Site
												{
													OFFSET 212.550781 0.000000 0.625752
												}
											}
										}
									}
								}
							}
						}
					}
				}
			}
		}
	}
	JOINT mixamorig:RightUpLeg
	{
		OFFSET -8.207787 -6.751648 -1.599560
		CHANNELS 6 Xposition Yposition Zposition Xrotation Yrotation Zrotation
		JOINT mixamorig:RightLeg
		{
			OFFSET -0.000002 -44.370117 0.345942
			CHANNELS 6 Xposition Yposition Zposition Xrotation Yrotation Zrotation
			JOINT mixamorig:RightFoot
			{
				OFFSET 0.000003 -44.423679 -3.043532
				CHANNELS 6 Xposition Yposition Zposition Xrotation Yrotation Zrotation
				JOINT mixamorig:RightToeBase
				{
					OFFSET -0.000002 -8.728671 10.710558
					CHANNELS 6 Xposition Yposition Zposition Xrotation Yrotation Zrotation
					JOINT mixamorig:RightToe_End
					{
						OFFSET -0.000001 -0.000679 9.278119
						CHANNELS 6 Xposition Yposition Zposition Xrotation Yrotation Zrotation
						End Site
						{
							OFFSET 0.000000 -0.067690 927.812134
						}
					}
				}
			}
		}
	}
	JOINT mixamorig:LeftUpLeg
	{
		OFFSET 8.207793 -6.751686 -1.599556
		CHANNELS 6 Xposition Yposition Zposition Xrotation Yrotation Zrotation
		JOINT mixamorig:LeftLeg
		{
			OFFSET -0.000004 -44.370014 0.346954
			CHANNELS 6 Xposition Yposition Zposition Xrotation Yrotation Zrotation
			JOINT mixamorig:LeftFoot
			{
				OFFSET -0.000001 -44.423672 -3.044401
				CHANNELS 6 Xposition Yposition Zposition Xrotation Yrotation Zrotation
				JOINT mixamorig:LeftToeBase
				{
					OFFSET -0.000002 -8.728669 10.710558
					CHANNELS 6 Xposition Yposition Zposition Xrotation Yrotation Zrotation
					JOINT mixamorig:LeftToe_End
					{
						OFFSET -0.000003 -0.000679 9.278133
						CHANNELS 6 Xposition Yposition Zposition Xrotation Yrotation Zrotation
						End Site
						{
							OFFSET 0.000000 -0.068021 927.813477
						}
					}
				}
			}
		}
	}
}
MOTION
Frames: 3
Frame Time: 0.033333
0.000006 104.270477 1.554256 0.000010 0.000003 -0.000113 -0.000005 10.181587 0.131522 0.000001 -0.000003 0.000084 -0.000000 9.893967 -1.470711 0.000001 0.000000 -0.000000 -0.000000 9.220802 -1.370642 0.000000 -0.000000 -0.000000 0.000001 16.740433 -2.049030 0.000000 -0.000000 -0.000000 0.000000 9.617859 1.685014 0.000000 0.000000 0.000000 0.000002 22.037384 7.501101 0.000000 -0.000000 0.000000 -4.569968 11.014880 -2.160881 0.000008 0.000001 -0.000038 -10.592774 -0.524858 -2.231749 87.841492 62.843184 -60.938989 -27.841499 0.000024 0.000571 40.275389 100.922254 -47.903610 -28.328831 0.000006 0.000033 -0.000322 -0.000045 0.000008 -2.464367 -1.573910 2.682293 -36.704200 -138.035104 7.992392 -3.214820 -1.872991 1.924666 209.599846 -46.872388 270.488168 -2.654665 -1.528257 1.513041 45.514946 -151.902915 116.687047 -2.018827 -1.152003 1.108063 -0.000000 -0.000003 0.000002 -9.108239 -0.517871 2.260416 168.329985 22.127989 -125.043224 -3.700107 0.000283 0.001541 96.272958 21.310448 336.313433 -2.850072 0.000302 -0.000426 419.531256 11.875979 -6.807828 -2.772163 -0.000003 -0.000021 -0.000001 -0.000001 -0.000000 -9.532595 0.000186 0.000437 135.176574 16.429665 -38.931146 -3.700040 0.000286 0.003816 422.084763 6.564409 -3.899663 -2.949975 0.000051 -0.002063 368.059469 -0.557747 0.039686 -2.946619 -0.000000 -0.000157 0.000001 -0.000003 0.000001 -9.103689 -0.042808 -1.864701 129.080562 14.474050 -29.776094 -3.379232 0.000244 -0.001035 412.508455 -8.827371 4.354589 -2.889620 -0.000041 0.000348 348.010569 -19.403623 -2.045848 -2.638807 -0.000017 0.000943 -0.000000 0.000000 -0.000001 -8.076718 -0.486413 -3.805834 131.487248 8.628289 -378.697462 -3.599864 0.000249 -0.003715 241.968740 -159.748207 -167.653058 -2.099828 -0.000082 -0.005798 348.673562 -29.307375 -3.041816 -2.115784 -0.000054 -0.003683 0.000003 -0.000002 -0.000003 4.570446 11.014691 -2.160851 -0.000018 0.000010 -0.000021 10.592546 -0.524516 -2.232405 80.384134 -62.027195 53.851882 27.841782 -0.000041 -0.000117 214.947488 -78.537586 222.116686 28.328831 -0.000028 0.000018 0.000022 -0.000091 0.000000 2.466180 -1.576053 2.681939 -72.851494 -4.251026 18.576788 3.217837 -1.871988 1.916550 56.969795 141.399368 -119.940499 2.655861 -1.528842 1.514615 -196.011198 44.214601 145.897034 2.020875 -1.154070 1.115143 0.000003 0.000003 0.000006 9.109048 -0.517794 2.259998 -168.292788 -12.088000 -91.849495 3.699986 0.000277 -0.000096 -121.849195 -4.446711 -8.011177 2.850007 0.000068 0.000537 116.123352 -189.447031 185.897996 2.774873 -0.000048 -0.000027 0.000001 -0.000002 -0.000000 9.533262 0.000377 0.000224 210.644154 -11.854026 318.508332 3.700007 0.000172 0.000017 -93.599020 -1.262748 -1.342333 2.950024 -0.000002 0.000048 -37.334388 8.901755 3.011727 2.952867 -0.000015 0.000072 0.000000 0.000002 -0.000001 9.104419 -0.042689 -1.864870 221.299331 -9.764885 334.454857 3.150017 0.000155 0.000246 -82.989633 3.071993 2.716092 2.949989 -0.000002 0.000115 -34.772059 10.545464 3.309742 2.644318 0.000032 0.000059 -0.000001 -0.000000 -0.000000 8.077692 -0.486554 -3.806031 229.859361 -12.331061 333.161082 3.599941 0.000190 0.014962 -85.397889 -3.482188 -3.577243 2.100007 0.000028 0.007848 -42.064314 9.047266 3.293717 2.125517 -0.000016 0.007521 -0.000002 -0.000001 0.000001 -8.207786 -6.751667 -1.599560 -0.077001 -0.000003 0.000080 -0.000002 -44.370110 0.345938 0.153719 -0.000000 -0.000000 0.000000 -44.423679 -3.043532 -0.076700 0.000000 -0.000002 -0.000006 -8.728667 10.710559 -0.000009 -0.000000 -0.000000 -0.000001 -0.000679 9.278123 0.000000 -0.000000 -0.000000 8.207792 -6.751710 -1.599556 -0.074518 -0.000003 0.000081 -0.000002 -44.370014 0.346960 0.148822 0.000002 0.000000 -0.000001 -44.423664 -3.044403 -0.074314 0.000000 -0.000002 -0.000004 -8.728671 10.710558 0.000007 -0.000000 -0.000000 0.000000 -0.000680 9.278137 -0.000000 0.000000 -0.000001 
0.000006 104.270477 1.554256 0.000010 0.000003 -0.000113 -0.000005 10.181587 0.131522 0.000001 -0.000003 0.000084 -0.000000 9.893967 -1.470711 0.000001 0.000000 -0.000000 -0.000000 9.220802 -1.370642 0.000000 -0.000000 -0.000000 0.000001 16.740433 -2.049030 0.000000 -0.000000 -0.000000 0.000000 9.617859 1.685014 0.000000 0.000000 0.000000 0.000002 22.037384 7.501101 0.000000 -0.000000 0.000000 -4.569968 11.014880 -2.160881 0.000008 0.000001 -0.000038 -10.592776 -0.524850 -2.231737 87.499989 62.859959 -60.657086 -27.841513 0.000003 0.000566 41.807660 100.667809 -49.461870 -28.328835 0.000023 0.000025 -0.000322 -0.000044 0.000006 -2.464355 -1.573940 2.682265 -35.187871 -134.312842 9.430652 -3.214855 -1.872993 1.924683 208.953409 -46.776854 269.905526 -2.654654 -1.528222 1.513062 40.197904 -151.600816 112.198561 -2.018830 -1.152013 1.108070 -0.000000 -0.000002 -0.000003 -9.108185 -0.517885 2.260422 169.925380 23.351242 -134.016631 -3.700094 0.000302 0.001525 96.701408 20.192030 337.386210 -2.850071 0.000302 -0.000431 417.468484 8.715105 -4.784093 -2.772148 -0.000015 -0.000023 0.000001 -0.000005 -0.000000 -9.532589 0.000182 0.000449 135.056991 16.527364 -39.039483 -3.700023 0.000300 0.003805 422.977687 3.427040 -2.047503 -2.949972 0.000063 -0.002073 368.673203 -4.239293 0.321849 -2.946629 0.000000 -0.000153 0.000000 0.000005 0.000001 -9.103686 -0.042770 -1.864711 126.763079 14.160696 -27.752350 -3.379220 0.000258 -0.001049 411.023763 -12.300348 5.882469 -2.889612 -0.000080 0.000339 343.422950 -21.718200 -3.187774 -2.638819 -0.000028 0.000943 0.000002 0.000000 0.000001 -8.076705 -0.486392 -3.805858 128.384416 7.591509 -375.338921 -3.599851 0.000233 -0.003725 237.896363 -156.887437 -167.013275 -2.099840 -0.000100 -0.005774 340.082987 -27.867783 -5.072618 -2.115765 -0.000034 -0.003678 0.000001 -0.000003 -0.000007 4.570446 11.014691 -2.160851 -0.000018 0.000010 -0.000021 10.592545 -0.524516 -2.232413 80.457853 -62.955131 54.762281 27.841776 -0.000069 -0.000131 214.544179 -78.897161 221.401238 28.328840 -0.000013 0.000010 0.000025 -0.000089 -0.000000 2.466194 -1.576052 2.681931 -72.850661 -5.581111 18.307269 3.217834 -1.871993 1.916548 58.996988 142.373394 -122.016357 2.655865 -1.528835 1.514619 -195.346006 44.862994 145.253917 2.020887 -1.154099 1.115148 0.000001 0.000000 0.000001 9.109051 -0.517759 2.259987 -168.345284 -11.279201 -88.110724 3.700002 0.000238 -0.000098 -114.593608 -0.184231 -0.308816 2.850017 0.000045 0.000527 122.757187 -193.571768 187.431292 2.774880 -0.000047 -0.000022 0.000001 0.000003 -0.000000 9.533293 0.000404 0.000220 215.311810 -11.385260 325.234047 3.700017 0.000114 -0.000030 -76.512059 4.544150 3.585715 2.950009 -0.000033 -0.000003 -16.427850 13.509473 1.958342 2.952865 -0.000016 0.000062 0.000000 -0.000000 0.000000 9.104467 -0.042708 -1.864872 226.067896 -9.267265 338.412132 3.150030 0.000089 0.000221 -65.562344 8.841883 5.699565 2.949971 -0.000007 0.000049 -15.865792 14.350323 2.009584 2.644325 0.000014 0.000058 -0.000002 0.000001 0.000000 8.077707 -0.486571 -3.806026 234.089598 -11.494153 337.042979 3.599953 0.000097 0.014928 -69.780109 0.112842 -0.215574 2.100002 0.000011 0.007764 -19.825160 11.589455 1.919669 2.125510 -0.000014 0.007522 -0.000002 0.000001 0.000000 -8.207786 -6.751667 -1.599560 -0.077001 -0.000003 0.000080 -0.000002 -44.370110 0.345938 0.153719 -0.000000 -0.000000 0.000000 -44.423679 -3.043532 -0.076700 0.000000 -0.000002 -0.000006 -8.728667 10.710559 -0.000009 -0.000000 -0.000000 -0.000001 -0.000679 9.278123 0.000000 -0.000000 -0.000000 8.207792 -6.751710 -1.599556 -0.074518 -0.000003 0.000081 -0.000002 -44.370014 0.346960 0.148822 0.000002 0.000000 -0.000001 -44.423664 -3.044403 -0.074314 0.000000 -0.000002 -0.000004 -8.728671 10.710558 0.000007 -0.000000 -0.000000 0.000000 -0.000680 9.278137 -0.000000 0.000000 -0.000001 
0.000006 104.270477 1.554256 0.000010 0.000003 -0.000113 -0.000005 10.181587 0.131522 0.000001 -0.000003 0.000084 -0.000000 9.893967 -1.470711 0.000001 0.000000 -0.000000 -0.000000 9.220802 -1.370642 0.000000 -0.000000 -0.000000 0.000001 16.740433 -2.049030 0.000000 -0.000000 -0.000000 0.000000 9.617859 1.685014 0.000000 0.000000 0.000000 0.000002 22.037384 7.501101 0.000000 -0.000000 0.000000 -4.569968 11.014880 -2.160881 0.000008 0.000001 -0.000038 -10.592772 -0.524847 -2.231742 87.529940 63.875519 -61.678623 -27.841516 -0.000006 0.000578 42.642145 100.458675 -50.248448 -28.328836 0.000023 0.000018 -0.000322 -0.000044 0.000007 -2.464359 -1.573905 2.682283 -39.414621 -138.877048 3.602850 -3.214833 -1.872997 1.924670 207.529397 -44.617606 270.003689 -2.654665 -1.528242 1.513069 40.308846 -154.599160 114.552552 -2.018834 -1.151997 1.108054 -0.000004 -0.000003 0.000002 -9.108185 -0.517893 2.260418 169.996155 23.390118 -134.378918 -3.700093 0.000288 0.001519 98.165985 20.640215 336.299800 -2.850072 0.000285 -0.000441 419.516093 9.526364 -5.454457 -2.772153 0.000007 -0.000020 -0.000004 -0.000002 -0.000001 -9.532599 0.000184 0.000454 136.333718 17.023128 -41.321466 -3.700041 0.000295 0.003813 423.452823 3.384738 -2.040491 -2.949968 0.000067 -0.002077 370.019105 -5.003698 0.439138 -2.946626 0.000029 -0.000161 0.000000 -0.000001 0.000001 -9.103697 -0.042790 -1.864702 127.978006 14.274948 -28.695479 -3.379195 0.000254 -0.001046 412.332400 -13.188814 6.496707 -2.889592 -0.000078 0.000360 344.216618 -23.282202 -3.257501 -2.638809 -0.000018 0.000938 -0.000003 -0.000002 -0.000003 -8.076708 -0.486396 -3.805855 129.014323 7.524852 -375.415993 -3.599824 0.000243 -0.003742 239.289394 -156.033062 -166.143614 -2.099821 -0.000114 -0.005774 339.663696 -29.247147 -5.445742 -2.115765 -0.000013 -0.003689 0.000003 -0.000003 -0.000001 4.570446 11.014691 -2.160851 -0.000018 0.000010 -0.000021 10.592539 -0.524524 -2.232403 80.471001 -63.305342 55.094512 27.841782 -0.000039 -0.000122 214.626837 -79.153129 221.325149 28.328833 -0.000044 0.000021 0.000022 -0.000089 -0.000001 2.466190 -1.576070 2.681926 -74.165582 -5.874962 18.531306 3.217852 -1.871987 1.916555 60.156734 144.100435 -123.838570 2.655859 -1.528830 1.514599 -193.224481 45.179475 142.312251 2.020895 -1.154071 1.115151 0.000003 0.000005 0.000001 9.109086 -0.517731 2.259998 -165.487205 -10.932301 -73.840998 3.700012 0.000216 -0.000088 -115.331501 1.680757 2.631924 2.850024 0.000055 0.000507 119.247781 -196.938724 189.976917 2.774889 -0.000043 -0.000020 0.000002 0.000003 -0.000001 9.533298 0.000399 0.000227 211.842238 -9.783398 326.614127 3.700033 0.000141 -0.000001 -89.906620 5.528337 5.521785 2.950026 -0.000028 0.000054 -38.306556 14.553981 5.077767 2.952856 -0.000015 0.000073 -0.000002 0.000004 0.000001 9.104469 -0.042720 -1.864881 222.811726 -7.837441 340.173009 3.150029 0.000113 0.000221 -75.338052 9.073815 7.009762 2.949983 -0.000007 0.000094 -29.314345 14.061468 3.694434 2.644326 0.000032 0.000057 -0.000000 0.000000 -0.000000 8.077703 -0.486565 -3.806023 231.345529 -10.336331 337.975000 3.599954 0.000140 0.014967 -78.178598 -0.136166 -0.451726 2.100007 -0.000005 0.007792 -32.810473 11.685122 3.288405 2.125511 -0.000015 0.007511 -0.000000 0.000001 0.000000 -8.207786 -6.751667 -1.599560 -0.077001 -0.000003 0.000080 -0.000002 -44.370110 0.345938 0.153719 -0.000000 -0.000000 0.000000 -44.423679 -3.043532 -0.076700 0.000000 -0.000002 -0.000006 -8.728667 10.710559 -0.000009 -0.000000 -0.000000 -0.000001 -0.000679 9.278123 0.000000 -0.000000 -0.000000 8.207792 -6.751710 -1.599556 -0.074518 -0.000003 0.000081 -0.000002 -44.370014 0.346960 0.148822 0.000002 0.000000 -0.000001 -44.423664 -3.044403 -0.074314 0.000000 -0.000002 -0.000004 -8.728671 10.710558 0.000007 -0.000000 -0.000000 0.000000 -0.000680 9.278137 -0.000000 0.000000 -0.000001 
